<?xml version="1.0" encoding="UTF-8"?>
<svg width="149px" height="187px" viewBox="0 0 149 187" version="1.1" xmlns="http://www.w3.org/2000/svg" xmlns:xlink="http://www.w3.org/1999/xlink">
    <title>ul</title>
    <g id="Page-1" stroke="none" stroke-width="1" fill="none" fill-rule="evenodd">
        <g id="ul" transform="translate(0.901197, 0.540804)" fill="#000000" fill-rule="nonzero">
            <g transform="translate(0.000000, 0.000000)" id="g16">
                <g transform="translate(73.714732, 92.833531) scale(-1, 1) rotate(-180.000000) translate(-73.714732, -92.833531) translate(0.000000, 0.000000)">
                    <polygon id="path86" points="141.970796 21.5754661 147.429463 21.5754661 147.429463 29.8021326 141.970796 29.8021326"></polygon>
                    <polygon id="path88" points="134.18413 46.6554655 128.68413 46.6554655 128.68413 35.2727991 134.18413 35.2727991"></polygon>
                    <polygon id="path90" points="141.970796 35.2741325 147.429463 35.2741325 147.429463 46.6567988 141.970796 46.6567988"></polygon>
                    <polygon id="path92" points="128.685463 52.1274654 147.429463 52.1274654 147.429463 55.7621319 128.685463 55.7621319"></polygon>
                    <polygon id="path94" points="128.685463 12.470133 147.429463 12.470133 147.429463 16.1447996 128.685463 16.1447996"></polygon>
                    <polygon id="path96" points="128.685463 21.5754661 134.185463 21.5754661 134.185463 29.8021326 128.685463 29.8021326"></polygon>
                    <polygon id="path98" points="141.970796 78.0861314 147.429463 78.0861314 147.429463 89.4687978 141.970796 89.4687978"></polygon>
                    <polygon id="path100" points="128.685463 94.9407976 147.429463 94.9407976 147.429463 98.6154642 128.685463 98.6154642"></polygon>
                    <g id="g102" transform="translate(128.684930, 61.233065)">
                        <path fill="currentColor" d="M0,0 L5.5,0 L5.5,8.66666645 C5.5,10.1839997 4.25466656,11.3826664 2.7306666,11.3826664 C1.20399997,11.3826664 0,10.1839997 0,8.66666645 L0,0 Z" id="path104"></path>
                    </g>
                    <polygon id="path106" points="119.493464 128.687463 147.429463 128.687463 147.429463 132.32213 119.493464 132.32213"></polygon>
                    <g id="g108" transform="translate(141.970530, 61.232665)">
                        <path fill="currentColor" d="M2.72933327,11.3826664 C1.20399997,11.3826664 0,10.1839997 0,8.66666645 L0,0 L5.45866653,0 L5.45866653,8.66666645 C5.45866653,10.1839997 4.25466656,11.3826664 2.72933327,11.3826664" id="path110"></path>
                    </g>
                    <polygon id="path112" points="134.18413 89.4687978 128.68413 89.4687978 128.68413 78.0861314 134.18413 78.0861314"></polygon>
                    <g id="g114" transform="translate(22.436133, 61.233065)">
                        <path fill="currentColor" d="M0,0 L5.5,0 L5.5,8.66666645 C5.5,10.1839997 4.25466656,11.3826664 2.7306666,11.3826664 C1.2053333,11.3826664 0,10.1839997 0,8.66666645 L0,0 Z" id="path116"></path>
                    </g>
                    <polygon id="path118" points="14.648133 89.4687978 9.14946644 89.4687978 9.14946644 78.0861314 14.648133 78.0861314"></polygon>
                    <g id="g120" transform="translate(89.748531, 148.315063)">
                        <path fill="currentColor" d="M4.57733322,2.5026666 L4.57733322,0.665333317 L4.57199989,0.665333317 L4.57199989,8.88178397e-16 L8.22933313,8.88178397e-16 L8.22933313,2.5026666 C8.22933313,5.37866653 6.30399984,7.8159998 3.65333324,8.61466645 L3.65333324,37.3519991 L0,37.3519991 L0,5.21866654 L1.80799995,5.21866654 C3.33199992,5.21866654 4.57733322,3.9799999 4.57733322,2.5026666" id="path122"></path>
                    </g>
                    <polygon id="path124" points="48.9694654 78.0861314 54.468132 78.0861314 54.468132 89.4687978 48.9694654 89.4687978"></polygon>
                    <g id="g126" transform="translate(9.150266, 61.233065)">
                        <path fill="currentColor" d="M0,0 L5.49866653,0 L5.49866653,8.66666645 C5.49866653,10.1839997 4.25466656,11.3826664 2.72933327,11.3826664 C1.20399997,11.3826664 0,10.1839997 0,8.66666645 L0,0 Z" id="path128"></path>
                    </g>
                    <polygon id="path130" points="9.15079977 21.5754661 14.6494663 21.5754661 14.6494663 29.8021326 9.15079977 29.8021326"></polygon>
                    <g id="g132" transform="translate(48.969999, 61.232665)">
                        <path fill="currentColor" d="M2.76799993,11.3826664 C1.24266664,11.3826664 0,10.1839997 0,8.66666645 L0,0 L5.49866653,0 L5.49866653,8.66666645 C5.49866653,10.1839997 4.29333323,11.3826664 2.76799993,11.3826664" id="path134"></path>
                    </g>
                    <polygon id="path136" points="41.182799 89.4687978 35.7241324 89.4687978 35.7241324 78.0861314 41.182799 78.0861314"></polygon>
                    <polygon id="path138" points="27.9361326 89.4687978 22.4361328 89.4687978 22.4361328 78.0861314 27.9361326 78.0861314"></polygon>
                    <g id="g140" transform="translate(35.723199, 61.233065)">
                        <path fill="currentColor" d="M0,0 L5.45866653,0 L5.45866653,8.66666645 C5.45866653,10.1839997 4.25333323,11.3826664 2.72933327,11.3826664 C1.20399997,11.3826664 0,10.1839997 0,8.66666645 L0,0 Z" id="path142"></path>
                    </g>
                    <g id="g144" transform="translate(0.000000, 12.469066)">
                        <polygon id="path146" points="3.65199991 76.9999981 1.18423786e-15 76.9999981 1.18423786e-15 0 54.4679986 0 54.4679986 3.67466657 3.65199991 3.67466657 3.65199991 39.6586657 54.4679986 39.6586657 54.4679986 43.2919989 3.65199991 43.2919989"></polygon>
                    </g>
                    <polygon id="path148" points="14.648133 46.6554655 9.14946644 46.6554655 9.14946644 35.2727991 14.648133 35.2727991"></polygon>
                    <g id="g150" transform="translate(69.345598, 123.136797)">
                        <polygon id="path152" points="8.22933313 16.4933329 36.2186658 16.4933329 40.6346657 2.36847573e-15 44.4479989 2.36847573e-15 39.047999 20.1279995 5.39999986 20.1279995 1.18423786e-15 0 3.81333324 0"></polygon>
                    </g>
                    <polygon id="path154" points="48.9694654 35.2741325 54.468132 35.2741325 54.468132 46.6567988 48.9694654 46.6567988"></polygon>
                    <g id="g156" transform="translate(69.118132, 9.086533)">
                        <path fill="currentColor" d="M4.75866655,29.3759993 L4.75866655,0 L8.41066646,0 L8.41066646,29.3759993 C8.41066646,33.8893325 4.71733322,37.5626657 0.181333329,37.5626657 L0,37.5626657 L0,33.9186658 C0.159999996,33.9186658 0.0213333328,33.9293325 0.181333329,33.9293325 C2.7106666,33.9293325 4.75866655,31.8919992 4.75866655,29.3759993" id="path158"></path>
                    </g>
                    <polygon id="path160" points="48.9694654 21.5754661 54.468132 21.5754661 54.468132 29.8021326 48.9694654 29.8021326"></polygon>
                    <polygon id="path162" points="22.4361328 21.5754661 27.9361326 21.5754661 27.9361326 29.8021326 22.4361328 29.8021326"></polygon>
                    <polygon id="path164" points="27.9361326 46.6554655 22.4361328 46.6554655 22.4361328 35.2727991 27.9361326 35.2727991"></polygon>
                    <polygon id="path166" points="35.7227991 21.5754661 41.1814656 21.5754661 41.1814656 29.8021326 35.7227991 29.8021326"></polygon>
                    <polygon id="path168" points="41.182799 46.6554655 35.7241324 46.6554655 35.7241324 35.2727991 41.182799 35.2727991"></polygon>
                    <g id="g170" transform="translate(105.323864, 61.233065)">
                        <path fill="currentColor" d="M0,0 L5.49866653,0 L5.49866653,8.66666645 C5.49866653,10.1839997 4.25466656,11.3826664 2.72933327,11.3826664 C1.20399997,11.3826664 0,10.1839997 0,8.66666645 L0,0 Z" id="path172"></path>
                    </g>
                    <g id="g174" transform="translate(0.039067, 94.940664)">
                        <polygon id="path176" points="12.9079997 33.7466658 63.6213317 33.7466658 63.6213317 37.3813324 10.0986664 37.3826657 0 0 54.429332 0 54.429332 3.67333324 4.79999988 3.67333324"></polygon>
                    </g>
                    <g id="g178" transform="translate(119.493464, 10.431866)">
                        <polygon id="path180" points="0 0 3.69333324 2.03733328 3.69333324 105.475997 0 105.475997"></polygon>
                    </g>
                    <g id="g182" transform="translate(105.623597, 9.086533)">
                        <path fill="currentColor" d="M0,29.3759993 L0,0 L3.65199991,0 L3.65199991,29.3759993 C3.65199991,31.8919992 5.69999986,33.9293325 8.22799979,33.9293325 C8.38933312,33.9293325 8.25066646,33.9186658 8.41066646,33.9186658 L8.41066646,37.5626657 L8.22799979,37.5626657 C3.69333324,37.5626657 0,33.8893325 0,29.3759993" id="path184"></path>
                    </g>
                    <g id="g186" transform="translate(69.117732, 52.127065)">
                        <path fill="currentColor" d="M25.2079994,3.63466658 L19.7093328,3.63466658 L19.7093328,14.1386663 C19.7093328,15.6159996 20.9533328,16.8533329 22.4386661,16.8533329 C23.9626661,16.8533329 25.2079994,15.6159996 25.2079994,14.1386663 L25.2079994,3.63466658 Z M28.8599993,14.1386663 C28.8599993,17.6519996 26.010666,20.4879995 22.4386661,20.4879995 C18.9053329,20.4879995 16.0573329,17.6519996 16.0573329,14.1386663 L16.0573329,3.63466658 L0,3.63466658 L0,0 L44.9159989,0 L44.9159989,3.63466658 L28.8599993,3.63466658 L28.8599993,14.1386663 Z" id="path188"></path>
                    </g>
                    <g id="g190" transform="translate(69.118398, 105.882531)">
                        <polygon id="path192" points="35.2826658 9.90799975 22.4386661 17.2933329 22.3679994 17.3386662 9.63199976 9.94799975 9.63199976 3.67466657 0 3.67466657 0 0 13.285333 0 13.285333 7.8679998 22.3986661 13.0999997 31.6279992 7.82933314 31.6279992 0 44.9159989 0 44.9159989 3.67466657 35.2826658 3.67466657"></polygon>
                    </g>
                    <g id="g194" transform="translate(72.329732, 61.233065)">
                        <path fill="currentColor" d="M0,0 L5.5,0 L5.5,8.66666645 C5.5,10.1839997 4.29333323,11.3826664 2.76799993,11.3826664 C1.24399997,11.3826664 0,10.1839997 0,8.66666645 L0,0 Z" id="path196"></path>
                    </g>
                    <g id="g198" transform="translate(83.327998, 9.086133)">
                        <path fill="currentColor" d="M16.4973329,0 L16.4973329,29.3759993 C16.4973329,33.8893325 12.805333,37.5639991 8.22799979,37.5639991 C3.69333324,37.5639991 0,33.8893325 0,29.3759993 L0,0 L3.65199991,0 L3.65199991,29.3759993 C3.65199991,31.8933325 5.69999986,33.9293325 8.22799979,33.9293325 C10.7559997,33.9293325 12.8439997,31.8933325 12.8439997,29.3759993 L12.8439997,0 L16.4973329,0 Z" id="path200"></path>
                    </g>
                    <g id="g202" transform="translate(59.967599, 10.432133)">
                        <polygon id="path204" points="0 2.03733328 3.69333324 -1.77635679e-15 3.69333324 105.475997 0 105.475997"></polygon>
                    </g>
                    <g id="g206" transform="translate(87.903198, 105.318797)">
                        <path fill="currentColor" d="M7.34533315,3.71599991 C7.34533315,5.76933319 5.69999986,7.43199981 3.65333324,7.43199981 C1.64533329,7.43199981 0,5.76933319 0,3.71599991 C0,1.66266663 1.64533329,0 3.65333324,0 C5.69999986,0 7.34533315,1.66266663 7.34533315,3.71599991" id="path208"></path>
                    </g>
                    <polygon id="path210" points="77.8294647 89.4687978 72.3294649 89.4687978 72.3294649 78.0861314 77.8294647 78.0861314"></polygon>
                    <g id="g212" transform="translate(69.117598, 94.940798)">
                        <path fill="currentColor" d="M22.5599994,7.30799982 C18.5866662,7.30799982 14.973333,5.95066652 12.1239997,3.67333324 L0,3.67333324 L0,0 L13.4866663,0 C15.8173329,2.27599994 19.0266662,3.67333324 22.5599994,3.67333324 C26.090666,3.67333324 29.2613326,2.27599994 31.6293325,0 L44.9159989,0 L44.9159989,3.67333324 L32.9959992,3.67333324 C30.1453326,5.95066652 26.4919993,7.30799982 22.5599994,7.30799982" id="path214"></path>
                    </g>
                    <g id="g216" transform="translate(85.174798, 78.086798)">
                        <path fill="currentColor" d="M12.8026663,0 L12.8026663,8.66666645 C12.8026663,12.181333 9.95333308,15.0559996 6.38133317,15.0559996 C2.84933326,15.0559996 0,12.181333 0,8.66666645 L0,0 L3.65199991,0 L3.65199991,8.66666645 C3.65199991,10.1839997 4.89599988,11.3826664 6.38133317,11.3826664 C7.90533314,11.3826664 9.15066644,10.1839997 9.15066644,8.66666645 L9.15066644,0 L12.8026663,0 Z" id="path218"></path>
                    </g>
                    <polygon id="path220" points="110.822797 89.4687978 105.324131 89.4687978 105.324131 78.0861314 110.822797 78.0861314"></polygon>
                    <g id="g222" transform="translate(69.117598, 0.000000)">
                        <polygon id="path224" points="4.81866655 3.63466658 1.18423786e-15 6.37333317 1.18423786e-15 2.15599995 3.83733324 0 41.079999 0 44.9159989 2.15599995 44.9159989 6.37333317 40.0986657 3.63466658"></polygon>
                    </g>
                </g>
            </g>
        </g>
    </g>
</svg>