<?xml version="1.0" encoding="UTF-8" standalone="no"?>
<svg
   width="149px"
   height="187px"
   viewBox="0 0 149 187"
   version="1.1"
   id="svg1"
   sodipodi:docname="ul.svg"
   inkscape:version="1.3.2 (091e20e, 2023-11-25)"
   xmlns:inkscape="http://www.inkscape.org/namespaces/inkscape"
   xmlns:sodipodi="http://sodipodi.sourceforge.net/DTD/sodipodi-0.dtd"
   xmlns="http://www.w3.org/2000/svg"
   xmlns:svg="http://www.w3.org/2000/svg">
  <defs
     id="defs1" />
  <sodipodi:namedview
     id="namedview1"
     pagecolor="#ffffff"
     bordercolor="#000000"
     borderopacity="0.25"
     inkscape:showpageshadow="2"
     inkscape:pageopacity="0.0"
     inkscape:pagecheckerboard="0"
     inkscape:deskcolor="#d1d1d1"
     inkscape:zoom="1.2620321"
     inkscape:cx="74.879237"
     inkscape:cy="93.5"
     inkscape:window-width="1680"
     inkscape:window-height="927"
     inkscape:window-x="54"
     inkscape:window-y="38"
     inkscape:window-maximized="0"
     inkscape:current-layer="svg1" />
  <title
     id="title1">ul</title>
  <g
     id="Page-1"
     stroke="none"
     stroke-width="1"
     fill="none"
     fill-rule="evenodd">
    <g
       id="ul"
       transform="translate(0.901197, 0.540804)"
       fill="#000000"
       fill-rule="nonzero">
      <g
         transform="translate(0.000000, 0.000000)"
         id="g16">
        <g
           transform="translate(73.714732, 92.833531) scale(-1, 1) rotate(-180.000000) translate(-73.714732, -92.833531) translate(0.000000, 0.000000)"
           id="g1">
          <path
          	 fill="currentColor"
             id="path86"
             d="m 141.9708,21.575466 h 5.45866 v 8.226667 h -5.45866 z" />
          <path
          	 fill="currentColor"
             id="path88"
             d="m 134.18413,46.655465 h -5.5 V 35.272799 h 5.5 z" />
          <path
          	 fill="currentColor"
             id="path90"
             d="m 141.9708,35.274132 h 5.45866 v 11.382667 h -5.45866 z" />
          <path
          	 fill="currentColor"
             id="path92"
             d="m 128.68546,52.127465 h 18.744 v 3.634667 h -18.744 z" />
          <path
          	 fill="currentColor"
             id="path94"
             d="m 128.68546,12.470133 h 18.744 V 16.1448 h -18.744 z" />
          <path
          	 fill="currentColor"
             id="path96"
             d="m 128.68546,21.575466 h 5.5 v 8.226667 h -5.5 z" />
          <path
          	 fill="currentColor"
             id="path98"
             d="m 141.9708,78.086131 h 5.45866 v 11.382667 h -5.45866 z" />
          <path
          	 fill="currentColor"
             id="path100"
             d="m 128.68546,94.940798 h 18.744 v 3.674666 h -18.744 z" />
          <g
             id="g102"
             transform="translate(128.684930, 61.233065)">
            <path
               fill="currentColor"
               d="M0,0 L5.5,0 L5.5,8.66666645 C5.5,10.1839997 4.25466656,11.3826664 2.7306666,11.3826664 C1.20399997,11.3826664 0,10.1839997 0,8.66666645 L0,0 Z"
               id="path104" />
          </g>
          <path
          	 fill="currentColor"
             id="path106"
             d="m 119.49346,128.68746 h 27.936 v 3.63467 h -27.936 z" />
          <g
             id="g108"
             transform="translate(141.970530, 61.232665)">
            <path
               fill="currentColor"
               d="M2.72933327,11.3826664 C1.20399997,11.3826664 0,10.1839997 0,8.66666645 L0,0 L5.45866653,0 L5.45866653,8.66666645 C5.45866653,10.1839997 4.25466656,11.3826664 2.72933327,11.3826664"
               id="path110" />
          </g>
          <path
          	 fill="currentColor"
             id="path112"
             d="m 134.18413,89.468798 h -5.5 V 78.086131 h 5.5 z" />
          <g
             id="g114"
             transform="translate(22.436133, 61.233065)">
            <path
               fill="currentColor"
               d="M0,0 L5.5,0 L5.5,8.66666645 C5.5,10.1839997 4.25466656,11.3826664 2.7306666,11.3826664 C1.2053333,11.3826664 0,10.1839997 0,8.66666645 L0,0 Z"
               id="path116" />
          </g>
          <path
          	 fill="currentColor"
             id="path118"
             d="M 14.648133,89.468798 H 9.1494664 V 78.086131 h 5.4986666 z" />
          <g
             id="g120"
             transform="translate(89.748531, 148.315063)">
            <path
               fill="currentColor"
               d="M4.57733322,2.5026666 L4.57733322,0.665333317 L4.57199989,0.665333317 L4.57199989,8.88178397e-16 L8.22933313,8.88178397e-16 L8.22933313,2.5026666 C8.22933313,5.37866653 6.30399984,7.8159998 3.65333324,8.61466645 L3.65333324,37.3519991 L0,37.3519991 L0,5.21866654 L1.80799995,5.21866654 C3.33199992,5.21866654 4.57733322,3.9799999 4.57733322,2.5026666"
               id="path122" />
          </g>
          <path
          	 fill="currentColor"
             id="path124"
             d="m 48.969465,78.086131 h 5.498667 v 11.382667 h -5.498667 z" />
          <g
             id="g126"
             transform="translate(9.150266, 61.233065)">
            <path
               fill="currentColor"
               d="M0,0 L5.49866653,0 L5.49866653,8.66666645 C5.49866653,10.1839997 4.25466656,11.3826664 2.72933327,11.3826664 C1.20399997,11.3826664 0,10.1839997 0,8.66666645 L0,0 Z"
               id="path128" />
          </g>
          <path
          	 fill="currentColor"
             id="path130"
             d="m 9.1507998,21.575466 h 5.4986662 v 8.226667 H 9.1507998 Z" />
          <g
             id="g132"
             transform="translate(48.969999, 61.232665)">
            <path
               fill="currentColor"
               d="M2.76799993,11.3826664 C1.24266664,11.3826664 0,10.1839997 0,8.66666645 L0,0 L5.49866653,0 L5.49866653,8.66666645 C5.49866653,10.1839997 4.29333323,11.3826664 2.76799993,11.3826664"
               id="path134" />
          </g>
          <path
          	 fill="currentColor"
             id="path136"
             d="M 41.182799,89.468798 H 35.724132 V 78.086131 h 5.458667 z" />
          <path
          	 fill="currentColor"
             id="path138"
             d="m 27.936133,89.468798 h -5.5 V 78.086131 h 5.5 z" />
          <g
             id="g140"
             transform="translate(35.723199, 61.233065)">
            <path
               fill="currentColor"
               d="M0,0 L5.45866653,0 L5.45866653,8.66666645 C5.45866653,10.1839997 4.25333323,11.3826664 2.72933327,11.3826664 C1.20399997,11.3826664 0,10.1839997 0,8.66666645 L0,0 Z"
               id="path142" />
          </g>
          <g
             id="g144"
             transform="translate(0.000000, 12.469066)">
            <path
          	 fill="currentColor"
               id="path146"
               d="M 3.6519999,76.999998 H 0 V 0 H 54.467999 V 3.6746666 H 3.6519999 V 39.658666 H 54.467999 v 3.633333 H 3.6519999 Z" />
          </g>
          <path
          	 fill="currentColor"
             id="path148"
             d="M 14.648133,46.655465 H 9.1494664 V 35.272799 h 5.4986666 z" />
          <g
             id="g150"
             transform="translate(69.345598, 123.136797)">
            <path
          	 fill="currentColor"
               id="path152"
               d="M 8.2293331,16.493333 H 36.218666 L 40.634666,0 h 3.813333 l -5.4,20.128 H 5.3999999 L 0,0 h 3.8133332 z" />
          </g>
          <path
          	 fill="currentColor"
             id="path154"
             d="m 48.969465,35.274132 h 5.498667 v 11.382667 h -5.498667 z" />
          <g
             id="g156"
             transform="translate(69.118132, 9.086533)">
            <path
               fill="currentColor"
               d="M4.75866655,29.3759993 L4.75866655,0 L8.41066646,0 L8.41066646,29.3759993 C8.41066646,33.8893325 4.71733322,37.5626657 0.181333329,37.5626657 L0,37.5626657 L0,33.9186658 C0.159999996,33.9186658 0.0213333328,33.9293325 0.181333329,33.9293325 C2.7106666,33.9293325 4.75866655,31.8919992 4.75866655,29.3759993"
               id="path158" />
          </g>
          <path
          	 fill="currentColor"
             id="path160"
             d="m 48.969465,21.575466 h 5.498667 v 8.226667 h -5.498667 z" />
          <path
          	 fill="currentColor"
             id="path162"
             d="m 22.436133,21.575466 h 5.5 v 8.226667 h -5.5 z" />
          <path
          	 fill="currentColor"
             id="path164"
             d="m 27.936133,46.655465 h -5.5 V 35.272799 h 5.5 z" />
          <path
          	 fill="currentColor"
             id="path166"
             d="m 35.722799,21.575466 h 5.458667 v 8.226667 h -5.458667 z" />
          <path
          	 fill="currentColor"
             id="path168"
             d="M 41.182799,46.655465 H 35.724132 V 35.272799 h 5.458667 z" />
          <g
             id="g170"
             transform="translate(105.323864, 61.233065)">
            <path
               fill="currentColor"
               d="M0,0 L5.49866653,0 L5.49866653,8.66666645 C5.49866653,10.1839997 4.25466656,11.3826664 2.72933327,11.3826664 C1.20399997,11.3826664 0,10.1839997 0,8.66666645 L0,0 Z"
               id="path172" />
          </g>
          <g
             id="g174"
             transform="translate(0.039067, 94.940664)">
            <path
          	 fill="currentColor"
               id="path176"
               d="m 12.908,33.746666 h 50.713332 v 3.634666 L 10.098666,37.382666 0,0 H 54.429332 V 3.6733332 H 4.7999999 Z" />
          </g>
          <g
             id="g178"
             transform="translate(119.493464, 10.431866)">
            <path
          	 fill="currentColor"
               id="path180"
               d="M 0,0 3.6933332,2.0373333 V 105.476 H 0 Z" />
          </g>
          <g
             id="g182"
             transform="translate(105.623597, 9.086533)">
            <path
               fill="currentColor"
               d="M0,29.3759993 L0,0 L3.65199991,0 L3.65199991,29.3759993 C3.65199991,31.8919992 5.69999986,33.9293325 8.22799979,33.9293325 C8.38933312,33.9293325 8.25066646,33.9186658 8.41066646,33.9186658 L8.41066646,37.5626657 L8.22799979,37.5626657 C3.69333324,37.5626657 0,33.8893325 0,29.3759993"
               id="path184" />
          </g>
          <g
             id="g186"
             transform="translate(69.117732, 52.127065)">
            <path
               fill="currentColor"
               d="M25.2079994,3.63466658 L19.7093328,3.63466658 L19.7093328,14.1386663 C19.7093328,15.6159996 20.9533328,16.8533329 22.4386661,16.8533329 C23.9626661,16.8533329 25.2079994,15.6159996 25.2079994,14.1386663 L25.2079994,3.63466658 Z M28.8599993,14.1386663 C28.8599993,17.6519996 26.010666,20.4879995 22.4386661,20.4879995 C18.9053329,20.4879995 16.0573329,17.6519996 16.0573329,14.1386663 L16.0573329,3.63466658 L0,3.63466658 L0,0 L44.9159989,0 L44.9159989,3.63466658 L28.8599993,3.63466658 L28.8599993,14.1386663 Z"
               id="path188" />
          </g>
          <g
             id="g190"
             transform="translate(69.118398, 105.882531)">
            <path
          	 fill="currentColor"
               id="path192"
               d="m 35.282666,9.9079998 -12.844,7.3853332 -0.07067,0.04533 L 9.6319998,9.9479997 V 3.6746666 H 0 V 0 H 13.285333 V 7.8679998 L 22.398666,13.1 31.627999,7.8293331 V 0 h 13.288 v 3.6746666 h -9.633333 z" />
          </g>
          <g
             id="g194"
             transform="translate(72.329732, 61.233065)">
            <path
               fill="currentColor"
               d="M0,0 L5.5,0 L5.5,8.66666645 C5.5,10.1839997 4.29333323,11.3826664 2.76799993,11.3826664 C1.24399997,11.3826664 0,10.1839997 0,8.66666645 L0,0 Z"
               id="path196" />
          </g>
          <g
             id="g198"
             transform="translate(83.327998, 9.086133)">
            <path
               fill="currentColor"
               d="M16.4973329,0 L16.4973329,29.3759993 C16.4973329,33.8893325 12.805333,37.5639991 8.22799979,37.5639991 C3.69333324,37.5639991 0,33.8893325 0,29.3759993 L0,0 L3.65199991,0 L3.65199991,29.3759993 C3.65199991,31.8933325 5.69999986,33.9293325 8.22799979,33.9293325 C10.7559997,33.9293325 12.8439997,31.8933325 12.8439997,29.3759993 L12.8439997,0 L16.4973329,0 Z"
               id="path200" />
          </g>
          <g
             id="g202"
             transform="translate(59.967599, 10.432133)">
            <path
          	 fill="currentColor"
               id="path204"
               d="M 0,2.0373333 3.6933332,0 V 105.476 H 0 Z" />
          </g>
          <g
             id="g206"
             transform="translate(87.903198, 105.318797)">
            <path
               fill="currentColor"
               d="M7.34533315,3.71599991 C7.34533315,5.76933319 5.69999986,7.43199981 3.65333324,7.43199981 C1.64533329,7.43199981 0,5.76933319 0,3.71599991 C0,1.66266663 1.64533329,0 3.65333324,0 C5.69999986,0 7.34533315,1.66266663 7.34533315,3.71599991"
               id="path208" />
          </g>
          <path
          	 fill="currentColor"
             id="path210"
             d="m 77.829465,89.468798 h -5.5 V 78.086131 h 5.5 z" />
          <g
             id="g212"
             transform="translate(69.117598, 94.940798)">
            <path
               fill="currentColor"
               d="M22.5599994,7.30799982 C18.5866662,7.30799982 14.973333,5.95066652 12.1239997,3.67333324 L0,3.67333324 L0,0 L13.4866663,0 C15.8173329,2.27599994 19.0266662,3.67333324 22.5599994,3.67333324 C26.090666,3.67333324 29.2613326,2.27599994 31.6293325,0 L44.9159989,0 L44.9159989,3.67333324 L32.9959992,3.67333324 C30.1453326,5.95066652 26.4919993,7.30799982 22.5599994,7.30799982"
               id="path214" />
          </g>
          <g
             id="g216"
             transform="translate(85.174798, 78.086798)">
            <path
               fill="currentColor"
               d="M12.8026663,0 L12.8026663,8.66666645 C12.8026663,12.181333 9.95333308,15.0559996 6.38133317,15.0559996 C2.84933326,15.0559996 0,12.181333 0,8.66666645 L0,0 L3.65199991,0 L3.65199991,8.66666645 C3.65199991,10.1839997 4.89599988,11.3826664 6.38133317,11.3826664 C7.90533314,11.3826664 9.15066644,10.1839997 9.15066644,8.66666645 L9.15066644,0 L12.8026663,0 Z"
               id="path218" />
          </g>
          <path
          	 fill="currentColor"
             id="path220"
             d="m 110.8228,89.468798 h -5.49867 V 78.086131 h 5.49867 z" />
          <g
             id="g222"
             transform="translate(69.117598, 0.000000)">
            <path
          	 fill="currentColor"
               id="path224"
               d="M 4.8186665,3.6346666 0,6.3733332 V 2.156 L 3.8373332,0 H 41.079999 l 3.836,2.156 V 6.3733332 L 40.098666,3.6346666 Z" />
          </g>
        </g>
      </g>
    </g>
  </g>
</svg>
